# xmcd CD database file
#
# Track frame offsets:
#	150
#	17155
#	43825
#	64183
#	80081
#	102984
#	120759
#	144441
#	159715
#	180702
#	203996
#	219884
#
# Disc length: 3212 seconds
#
# Revision: 0
# Processed by: cddbd v1.5.1PL2 Copyright (c) Steve Scherf et al.
# Submitted via: CDex 1.51
#
DISCID=a50c8a0c
DTITLE=Delfina Oliver  - Mirada
DYEAR=2005
DGENRE=Jazz
TTITLE0=Angel eyes
TTITLE1=Good morning heartache
TTITLE2=Stromy weather
TTITLE3=Do nothing till you hear from me
TTITLE4=Fair weather
TTITLE5=Everything happens to me
TTITLE6=Blue in green
TTITLE7=Sophisticated lady
TTITLE8=My funny valentine
TTITLE9=Lush life
TTITLE10=Cheek to cheek
TTITLE11=I remember you
EXTD=YEAR: 2005
EXTT0=
EXTT1=
EXTT2=
EXTT3=
EXTT4=
EXTT5=
EXTT6=
EXTT7=
EXTT8=
EXTT9=
EXTT10=
EXTT11=
PLAYORDER=
